<svg xmlns="http://www.w3.org/2000/svg" viewBox="0 0 200 60">
  <path d="M12.5 15h12.3c6.2 0 10.5 3.8 10.5 9.5 0 4.1-2.2 7.3-6.1 8.6 4.7 1.3 7.8 4.9 7.8 9.9 0 6.5-5.1 10.7-12.1 10.7H12.5V15zm7.3 14.2h5.1c2.3 0 3.8-1.4 3.8-3.5 0-2-1.5-3.5-3.8-3.5h-5.1v7zm0 17.5h5.8c2.8 0 4.7-1.7 4.7-4.2 0-2.4-1.9-4.2-4.7-4.2h-5.8v8.4zM50.4 34.4c0-11.4 8.7-20.1 20.1-20.1 7.2 0 13.2 3.6 16.5 9.2l-6.1 3.5c-2.3-3.6-6.1-5.7-10.4-5.7-7.4 0-12.7 5.7-12.7 13.1s5.3 13.1 12.7 13.1c4.6 0 8.6-2.4 10.8-6.3l6.1 3.2c-3.6 6.1-9.7 10.1-16.9 10.1-11.4 0-20.1-8.7-20.1-20.1zM98.6 34.4c0-11.4 8.7-20.1 20.1-20.1 7.2 0 13.2 3.6 16.5 9.2l-6.1 3.5c-2.3-3.6-6.1-5.7-10.4-5.7-7.4 0-12.7 5.7-12.7 13.1s5.3 13.1 12.7 13.1c4.6 0 8.6-2.4 10.8-6.3l6.1 3.2c-3.6 6.1-9.7 10.1-16.9 10.1-11.4 0-20.1-8.7-20.1-20.1zm41.4-1.2h21.1v4.4H140V33.2z" fill="#009245"/>
</svg>