<svg xmlns="http://www.w3.org/2000/svg" viewBox="0 0 400 100" fill="#051C2C">
  <path d="M40.5 32.5h-10.8v34.8H21.4V32.5H10.5v-7.1h30v7.1zM58.3 46.8c0-8.6 5.8-14.7 14.1-14.7 7.9 0 13.5 5.7 13.5 13.3v21.9H77.6V46.8c0-4.3-2.6-6.9-6-6.9-3.7 0-6.4 2.8-6.4 7.2v20.2H58.3V46.8zM116.2 55.4l11.4 11.9h-8.8l-8.5-9-4.3 4.2v4.8h-6.9V25.4h6.9v22.4l12.4-12.2h8.7l-10.9 10.8zM143.5 32.5h-6.9v34.8h6.9V32.5zm-.1-10.4c0-2.3 1.9-4.2 4.2-4.2s4.2 1.9 4.2 4.2-1.9 4.2-4.2 4.2-4.2-1.9-4.2-4.2zM162.3 46.8c0-8.6 5.8-14.7 14.1-14.7 7.9 0 13.5 5.7 13.5 13.3v21.9h-8.3V46.8c0-4.3-2.6-6.9-6-6.9-3.7 0-6.4 2.8-6.4 7.2v20.2h-6.9V46.8zM216.5 53.4c-1.3-4.1-4.7-6.8-9-6.8-4.9 0-8.4 3.7-8.4 9.1 0 5.3 3.4 9.1 8.4 9.1 4.3 0 7.8-2.6 9.1-6.8h7.2c-1.8 7.9-8.4 13.8-16.3 13.8-9.4 0-15.6-7-15.6-16.1s6.2-16.1 15.6-16.1c8 0 14.5 5.9 16.3 13.8h-7.3zM238.2 46.8c0-8.6 5.8-14.7 14.1-14.7 7.9 0 13.5 5.7 13.5 13.3v21.9h-8.3V46.8c0-4.3-2.6-6.9-6-6.9-3.7 0-6.4 2.8-6.4 7.2v20.2h-6.9V46.8zM286.5 51.4l-11.4 15.9h-8l15.2-20.2-14.3-14.6h8.4l10.3 11.1 10.3-11.1h8.4L291.1 47l15.3 20.3h-8.1l-11.8-15.9z"/>
</svg>